<svg xmlns="http://www.w3.org/2000/svg" xmlns:xlink="http://www.w3.org/1999/xlink" width="70.497" height="72.162" viewBox="0 0 70.497 72.162">
  <defs>
    <clipPath id="clip-path">
      <rect id="Rectangle_162" data-name="Rectangle 162" width="70.497" height="72.162" fill="#fff"/>
    </clipPath>
  </defs>
  <g id="Group_504" data-name="Group 504" transform="translate(-1051.514 -3116.524)">
    <g id="Group_304" data-name="Group 304" transform="translate(1051.514 3116.524)">
      <g id="Group_303" data-name="Group 303" clip-path="url(#clip-path)">
        <path id="Path_377" data-name="Path 377" d="M70.276,37.857a6.191,6.191,0,0,0-.41-4.382c-.288-.6-.586-1.186-.883-1.776-.244-.486-.489-.972-.729-1.461a4.963,4.963,0,0,0-3.089-2.65c-1.158-.372-2.313-.756-3.468-1.139-1.132-.376-2.263-.751-3.4-1.117a.687.687,0,0,1-.583-.788c0-.214.008-.427.013-.642a15.955,15.955,0,0,0-.12-2.99,7.768,7.768,0,0,0-7.733-6.519q-2.242-.019-4.485-.016-1.837,0-3.675,0-1.793,0-3.586.005h-.749a3.459,3.459,0,0,1-.081-1.243c.044-.819.09-1.665-1.016-2.124a7.233,7.233,0,0,1,2.355-4.138,43.6,43.6,0,0,1,3.631-2.528,43.042,43.042,0,0,0,3.563-2.476,1.292,1.292,0,0,0,.52-.87.932.932,0,0,0-.287-.684A.9.9,0,0,0,45.4,0a1.3,1.3,0,0,0-.844.4c-.483.436-2.085,1.452-3.5,2.349-1.215.771-2.363,1.5-2.792,1.847a10.122,10.122,0,0,0-4,6.433c-1.405.323-1.356,1.227-1.309,2.1a2.966,2.966,0,0,1-.107,1.259h-.727q-1.783,0-3.567-.006-1.865,0-3.73-.006-2.225,0-4.448.017a7.693,7.693,0,0,0-7.667,6.588,18.046,18.046,0,0,0-.119,3.308c.02.678-.155.928-.78,1.117-1.632.493-3.273,1.049-4.86,1.586q-.888.3-1.776.6A4.659,4.659,0,0,0,2.4,30.013l-.655,1.315q-.549,1.1-1.1,2.208A5.932,5.932,0,0,0,.2,37.764q.933,3.688,1.878,7.372Q2.709,47.6,3.337,50.06c.316,1.241.626,2.483.932,3.707l.375,1.5c-.177.119-.35.233-.518.343-.408.268-.794.521-1.158.8A2.238,2.238,0,0,0,2.1,59.006c.971,3.665,1.964,7.586,3.033,11.988a1.32,1.32,0,0,0,1.5,1.168h.011q4.849-.014,9.7-.011l10.731,0c.637,0,1.013-.116,1.216-.375a1.441,1.441,0,0,0,.079-1.257L27.323,66.2c-1.016-4.186-2.067-8.515-3.082-12.776a2.025,2.025,0,0,0-1.592-1.674c-.52-.119-1.057-.2-1.576-.278-.193-.029-.385-.058-.578-.089l0-.006a8.737,8.737,0,0,0,.28-9.06.845.845,0,0,1,.117-.8,1.191,1.191,0,0,1,.914-.628l11.134,0q7.907,0,15.812,0a1.013,1.013,0,0,1,.826.465,1.291,1.291,0,0,1,.169,1.167,16.462,16.462,0,0,0-.973,3.308,8.084,8.084,0,0,0,1.354,5.6c-.193.028-.383.054-.57.079-.557.075-1.083.147-1.607.264a1.919,1.919,0,0,0-1.562,1.51q-1.1,4.535-2.2,9.069-.995,4.09-1.985,8.181a1.41,1.41,0,0,0,.086,1.221c.2.258.567.373,1.179.373l10.481,0q5.016,0,10.039.011a1.28,1.28,0,0,0,1.455-1.124c1.154-4.711,2.124-8.544,3.053-12.066a2.147,2.147,0,0,0-.8-2.464c-.405-.32-.842-.613-1.264-.9-.169-.113-.338-.227-.507-.343L67.1,50.536q1.58-6.35,3.173-12.679M22.709,38.9l.356-.534c.46-.69.895-1.342,1.358-1.97.048-.066.242-.1.575-.1q4.53,0,9.059-.006,5.766,0,11.531.019a1.2,1.2,0,0,1,.8.421c.389.5.744,1.038,1.119,1.61.119.181.241.368.369.559ZM5.356,58.133,4.1,57.993l-.013-.046,1.048-.7Zm-.167,1.908c.757,0,.8.181,1.087,1.358q1.01,4.157,2.011,8.327c.027.112.046.225.069.366l.021.124-.265.005c-.124,0-.244.005-.363.005a4.143,4.143,0,0,1-.526-.028.5.5,0,0,1-.324-.271c-.706-2.741-1.4-5.485-2.095-8.267l-.4-1.583c.318-.022.576-.038.782-.038M18.817,42.9a6.64,6.64,0,0,1-.375,8.014,1.626,1.626,0,0,0-.32,1.588c.189.683.353,1.361.527,2.08q.1.4.2.813A40.842,40.842,0,0,1,7.382,58.1l-.419-1.649c-.3-1.18-.6-2.341-.887-3.5L4.563,46.9q-1.2-4.806-2.4-9.61a4.078,4.078,0,0,1,.242-2.82l.3-.632a29.827,29.827,0,0,1,1.517-2.932,3.386,3.386,0,0,1,1.5-1.36c1.643-.623,3.3-1.161,5.047-1.731.609-.2,1.224-.4,1.848-.606,0,.172,0,.341,0,.507,0,.61.01,1.185-.027,1.755,0,.068-.22.253-.4.3a5.131,5.131,0,0,0-3.666,3.554c-.227.656-.518,1.3-.8,1.925-.118.261-.234.52-.347.78l-.034.006c-.021,0-.038.007-.039.011a1.964,1.964,0,0,0-.8-.218.843.843,0,0,0-.8.574c-.406.921.437,1.3.842,1.479,1.353.606,2.7,1.222,4.073,1.85l1.495.683-.047.085a.484.484,0,0,0-.1.339c.021.084.038.177.057.271.069.361.141.733.383.871a.6.6,0,0,0,.3.065,1.384,1.384,0,0,0,.923-.363c.675-.782,1.308-1.62,1.92-2.431.2-.268.405-.536.61-.8q.857-1.118,1.711-2.238,1.048-1.373,2.1-2.744a2.052,2.052,0,0,1,1.541-.961,1.565,1.565,0,0,1,.911.324,1.807,1.807,0,0,1,.3,2.672L21.9,36.717c-.994,1.487-2.023,3.025-3.054,4.523a1.318,1.318,0,0,0-.025,1.664m40.148-7.89c.22-.758-.355-1.093-.806-1.278a.757.757,0,0,1-.385-.493,7.72,7.72,0,0,1-.029-1.135q0-.195.007-.4a2.488,2.488,0,0,1,2.057,1.377c.419.9.809,1.824,1.186,2.721q.223.531.449,1.06a5.762,5.762,0,0,1-3,1.157,3.231,3.231,0,0,1-1.88-.637l.861-1.707s.06,0,.089,0a.412.412,0,0,1,.083.007,2.023,2.023,0,0,0,.4.045.923.923,0,0,0,.964-.713M14.481,33.75l.029-.013,1.6,1.366-.835,1.062ZM54.3,34.983l1.457-1.264.045.011-.685,2.294Zm1.537-6.3a5.715,5.715,0,0,1-2.7,4.78s-.783-1-1.025-1.309a3.714,3.714,0,0,0-2.9-1.585,3.357,3.357,0,0,0-1.042.171,3.658,3.658,0,0,0-2.629,3.29l-.04.319H25.082c-.216-2.013-1.183-3.24-2.875-3.647a4.029,4.029,0,0,0-.941-.119c-1.849,0-2.879,1.5-3.87,2.965a5.213,5.213,0,0,1-2.791-4.221,63.2,63.2,0,0,1,.025-7.936,5.694,5.694,0,0,1,5.812-5.052q7.539-.026,15.078-.027c4.938,0,9.791.01,14.425.029a5.822,5.822,0,0,1,5.906,6.075q0,.787.008,1.574c.009,1.539.019,3.131-.02,4.693M13.652,37.105l.161.333a3.051,3.051,0,0,1-1.794.614A5.968,5.968,0,0,1,9.035,36.9q.226-.53.449-1.062c.377-.9.768-1.822,1.179-2.72A2.419,2.419,0,0,1,12.485,31.8l.094,1.855-.047.018a2.416,2.416,0,0,1-.236.083c-.671.185-.97.571-.889,1.148.1.747.716.846,1.166.855a.707.707,0,0,1,.5.255,11.459,11.459,0,0,1,.576,1.1m34.077-3.8a1.487,1.487,0,0,1,1.227-.81,1.256,1.256,0,0,1,.328.046,2.607,2.607,0,0,1,1.287.837c1.543,1.961,3.081,3.979,4.569,5.931q.751.986,1.5,1.97c.038.049.072.105.107.162a.806.806,0,0,0,.345.367,2.856,2.856,0,0,0,.887.245.419.419,0,0,0,.266-.077,1.422,1.422,0,0,0,.354-.888c.015-.087.03-.174.048-.254a.477.477,0,0,0-.111-.336c-.015-.024-.03-.05-.046-.077q.688-.316,1.37-.625c1.519-.691,2.954-1.344,4.4-2.053a1.536,1.536,0,0,0,.676-1.068c.042-.281-.413-.7-.709-.8a.613.613,0,0,0-.2-.032,2.039,2.039,0,0,0-.509.1c-.09.025-.186.051-.286.073-.118-.272-.24-.545-.363-.821-.306-.685-.622-1.392-.89-2.11a4.808,4.808,0,0,0-3.472-3.2c-.562-.139-.741-.381-.684-.927a10.481,10.481,0,0,0,.024-1.3c0-.158-.008-.319-.009-.486l.651.206c.573.181,1.111.35,1.647.527q.9.3,1.8.6c.921.309,1.842.617,2.767.916a2.876,2.876,0,0,1,1.773,1.5q.847,1.685,1.682,3.377a4,4,0,0,1,.288,2.809L63.415,57.026c-.054.211-.262,1.009-.262,1.009a39.007,39.007,0,0,1-11.388-2.66c.068-.273.139-.542.209-.808a21.123,21.123,0,0,0,.495-2.179,2.149,2.149,0,0,0-.331-1.473,6.757,6.757,0,0,1-.346-8.035,1.341,1.341,0,0,0-.012-1.669c-.825-1.206-1.639-2.42-2.453-3.633q-.771-1.149-1.544-2.3a1.675,1.675,0,0,1-.054-1.978M63.7,69.859a.712.712,0,0,1-.461.323,1.856,1.856,0,0,1-.393.034c-.1,0-.2,0-.315-.008l-.265-.008,2.086-8.233.182-.7c.289-1.118.347-1.261.9-1.261a8.141,8.141,0,0,1,.823.067l-.412,1.589c-.7,2.689-1.418,5.47-2.148,8.2m1.536-11.721.222-.893,1,.738Zm-57,1.981c1.116-.1,8.721-.924,14.664-4.5l3.516,14.418H10.5Zm12.2-6.675,1.511.125.014.03L20.713,54.6Zm29.787-.024-.3,1.105-1.247-.773Zm12.468,6.7-2.619,9.923H44.506l3.516-14.418c5.935,3.567,13.527,4.39,14.66,4.5" transform="translate(0)" fill="#fff"/>
        <path id="Path_378" data-name="Path 378" d="M85.911,56.282c-.185-.005-.369-.007-.554-.007l-.888,0-1.015-.005c-.223,0-.446,0-.668.011a.942.942,0,0,0-1.033,1,.916.916,0,0,0,.992.957q.8.016,1.61.016t1.592-.014a1.1,1.1,0,0,0,.794-.3.962.962,0,0,0,.248-.705c-.01-.594-.4-.946-1.078-.964" transform="translate(-49.1 -33.798)" fill="#fff"/>
        <path id="Path_379" data-name="Path 379" d="M86.116,64.948c-.571-.047-1.152-.071-1.729-.071s-1.165.024-1.74.071c-.361.03-.766.585-.839.931a.714.714,0,0,0,.127.606,1,1,0,0,0,.77.338c.209.007.419.009.628.009l.987-.006c.172,0,.345.008.518.016s.354.016.529.016a3.191,3.191,0,0,0,.736-.073,1.273,1.273,0,0,0,.859-.908,1.2,1.2,0,0,0-.847-.931" transform="translate(-49.122 -38.964)" fill="#fff"/>
        <path id="Path_380" data-name="Path 380" d="M123.673,50.624a1.677,1.677,0,0,0-1.656,1.652,1.639,1.639,0,0,0,1.584,1.711h.069a1.682,1.682,0,0,0,0-3.364" transform="translate(-73.282 -30.404)" fill="#fff"/>
        <path id="Path_381" data-name="Path 381" d="M105.911,68.366h0a1.678,1.678,0,0,0-1.635,1.673,1.7,1.7,0,0,0,.494,1.217,1.626,1.626,0,0,0,1.159.482h.04a1.7,1.7,0,0,0,1.645-1.757,1.7,1.7,0,0,0-1.7-1.616" transform="translate(-62.626 -41.06)" fill="#fff"/>
        <path id="Path_382" data-name="Path 382" d="M114.756,59.481h0a1.678,1.678,0,0,0-1.63,1.676,1.659,1.659,0,0,0,1.615,1.682h.043a1.685,1.685,0,0,0,1.683-1.668,1.665,1.665,0,0,0-.492-1.19,1.686,1.686,0,0,0-1.218-.5" transform="translate(-67.941 -35.724)" fill="#fff"/>
        <path id="Path_383" data-name="Path 383" d="M54.156,54.93c-.475-.014-.95,0-1.485,0,0-.55.011-1.027,0-1.5a1.45,1.45,0,1,0-2.9-.024c-.014.477,0,.955,0,1.527h-.822c-1.521,0-2.186.444-2.2,1.455-.011,1.038.656,1.486,2.222,1.495.254,0,.507,0,.812,0,0,.566-.012,1.044,0,1.522a1.477,1.477,0,0,0,1.493,1.5,1.461,1.461,0,0,0,1.409-1.513c.011-.476,0-.953,0-1.514.541,0,1.017.014,1.49,0a1.473,1.473,0,1,0-.024-2.942" transform="translate(-28.077 -31.173)" fill="#fff"/>
      </g>
    </g>
  </g>
</svg>
