<svg xmlns="http://www.w3.org/2000/svg" xmlns:xlink="http://www.w3.org/1999/xlink" width="77.941" height="69.52" viewBox="0 0 77.941 69.52">
  <defs>
    <clipPath id="clip-path">
      <rect id="Rectangle_160" data-name="Rectangle 160" width="77.941" height="69.52" fill="#fff"/>
    </clipPath>
  </defs>
  <g id="Group_502" data-name="Group 502" transform="translate(-325.976 -3123.763)">
    <g id="Group_501" data-name="Group 501">
      <g id="Group_300" data-name="Group 300" transform="translate(325.976 3123.763)">
        <g id="Group_299" data-name="Group 299" clip-path="url(#clip-path)">
          <path id="Path_355" data-name="Path 355" d="M35.214,68.681a7.878,7.878,0,0,1-1.7-.172c-2.524-.56-3.9-2.9-3.507-5.95a24.024,24.024,0,0,1,3.435-9.2,4.055,4.055,0,0,0,.322-3.9A26.008,26.008,0,0,1,53.907,14.654a29.826,29.826,0,0,1,4.779-.4c7.354,0,13.852,3,19.314,8.909.078.084.154.171.23.257s.176.2.267.3a.285.285,0,0,0,.19.091h.15l.027-.123c.48-.36.951-.727,1.418-1.091a39.806,39.806,0,0,1,3.277-2.384A21.827,21.827,0,0,1,95.3,16.926c1.152,0,1.518.361,1.52,1.485a22.294,22.294,0,0,1-6.585,16.045c-.2.207-.44.414-.67.614a3.916,3.916,0,0,0-1.369,1.694,3.566,3.566,0,0,0,.367,2.063c.109.288.221.586.3.865q.171.625.338,1.252c.3,1.128.615,2.294.956,3.432a1.664,1.664,0,0,1-.518,1.884c-.711.672-1.41,1.378-2.086,2.061q-.479.485-.961.966c-.495.492-.843.7-1.167.7s-.667-.212-1.137-.687a2.379,2.379,0,0,1-.329-.491c-.067-.119-.142-.251-.234-.4l-.187-.3-.139.324c-.2.465-.379.895-.547,1.3-.334.8-.623,1.494-.949,2.171A26.214,26.214,0,0,1,58.4,66.648c-.488,0-.982-.014-1.469-.042a24.871,24.871,0,0,1-8.718-2.044,1.911,1.911,0,0,0-.779-.185,1.933,1.933,0,0,0-.983.306A28.084,28.084,0,0,1,37.193,68.5a11.94,11.94,0,0,1-1.979.176m.4-14.628a26.435,26.435,0,0,0-3.077,7.378,10.514,10.514,0,0,0-.167,2.974,1.942,1.942,0,0,0,1.984,1.95c.283.022.57.033.855.033a10.408,10.408,0,0,0,2.126-.213,26.751,26.751,0,0,0,7.354-3.063l.274-.152-.265-.166a27.036,27.036,0,0,1-8.764-8.75l-.168-.267Zm40.247-8.978a1.78,1.78,0,0,0-.2.147,14.862,14.862,0,0,1-8.9,3.8,1.8,1.8,0,0,0-1.005.529A113.813,113.813,0,0,1,50.758,61.977c-.152.106-.3.219-.449.333l-.374.282.147.151c.023.024.042.045.058.064a.433.433,0,0,0,.15.127,4.941,4.941,0,0,0,.555.222,26.364,26.364,0,0,0,7.769,1.231A23.488,23.488,0,0,0,72.206,59.94a23.088,23.088,0,0,0,9.017-12.581,1.524,1.524,0,0,0-.061-1.111,5.507,5.507,0,0,0-.734-.929c-.1-.113-.2-.223-.3-.335l-.111-.131-.139.1c-1.013.736-1.522,1.105-1.96,1.105-.423,0-.87-.346-1.759-1.033l-.11-.085ZM58.6,16.541a27.24,27.24,0,0,0-4.957.472c-9.907,1.841-17.389,9.731-19.062,20.1A23.944,23.944,0,0,0,46.408,61.209a1.47,1.47,0,0,0,.734.227,1.5,1.5,0,0,0,.844-.31A104.9,104.9,0,0,0,64.143,47.917a2.889,2.889,0,0,0,.592-1.293c.148-.54.273-1.1.393-1.635a17.542,17.542,0,0,1,.886-3.076,18.844,18.844,0,0,1,1.725-2.962c.284-.427.578-.869.855-1.317l.069-.112-.082-.1c-1.322-1.621-1.322-1.621.117-3.433l.1-.129-1.352-1.348q-1.537-1.532-3.075-3.071c-.872-.875-.867-1.359.023-2.252q.552-.554,1.108-1.1c.673-.668,1.369-1.358,2.041-2.049a1.528,1.528,0,0,1,1.123-.544,1.8,1.8,0,0,1,.549.094c.52.167,1.057.3,1.576.438.247.063.493.126.738.193l4.956,1.343.23-.384-.087-.1c-.077-.09-.153-.181-.228-.272-.164-.2-.333-.4-.517-.591-4.991-5.088-10.8-7.667-17.28-7.667M81.622,43.3l3.9,3.883.131-.135c.157-.163.312-.329.466-.5A13.192,13.192,0,0,1,87.2,45.483a1.372,1.372,0,0,0,.428-1.7c-.234-.686-.421-1.406-.6-2.1-.077-.3-.154-.6-.236-.893l-.561-2.065ZM70.264,39.487a12.141,12.141,0,0,0-3.23,6.98L67,46.7l.235-.029a11.915,11.915,0,0,0,6.987-3.227l.138-.13-3.97-3.97Zm7.76,3.886.179-.152a2.8,2.8,0,0,0,.217-.191q1.481-1.479,2.964-2.956c2.476-2.467,5.036-5.019,7.534-7.547a18.792,18.792,0,0,0,4.823-8.336c.287-1.047.471-2.1.666-3.207.087-.5.175-1,.273-1.5l.04-.206-.209-.014c-.134-.009-.231-.017-.306-.024-.1-.008-.159-.013-.213-.013l-.058,0a18.248,18.248,0,0,0-11.348,4.457c-2.938,2.68-5.791,5.549-8.551,8.323q-1.771,1.781-3.553,3.551l-.132.13.019.02,0,0,.047.11.052.1h.113ZM69.282,26a1.1,1.1,0,0,0-.668.216c-.527.442-1.02.9-1.5,1.349-.165.154-.624.578-.624.578l3.977,3.971,4.581-4.585L73.5,27.1c-1.31-.361-2.664-.734-4-1.079A.872.872,0,0,0,69.282,26" transform="translate(-18.875 -8.986)" fill="#fff"/>
          <path id="Path_356" data-name="Path 356" d="M3.777,53.916A3.755,3.755,0,0,1,1.1,52.8,3.735,3.735,0,0,1,0,50.129,3.775,3.775,0,1,1,6.455,52.79a3.737,3.737,0,0,1-2.662,1.126ZM3.771,48.65a1.494,1.494,0,1,0,.041,0Z" transform="translate(0 -29.239)" fill="#fff"/>
          <path id="Path_357" data-name="Path 357" d="M33.291,2.255a1.144,1.144,0,0,1-1.114-1.144A1.125,1.125,0,0,1,34.114.345a1.114,1.114,0,0,1,.323.8,1.148,1.148,0,0,1-1.13,1.113Z" transform="translate(-20.285)" fill="#fff"/>
          <path id="Path_358" data-name="Path 358" d="M161.985,2.255a1.144,1.144,0,0,1-1.11-1.147,1.125,1.125,0,0,1,1.938-.76,1.112,1.112,0,0,1,.32.8A1.149,1.149,0,0,1,162,2.255Z" transform="translate(-101.414)" fill="#fff"/>
          <path id="Path_359" data-name="Path 359" d="M194.176,143.209a1.128,1.128,0,0,1-.018-2.256h0a1.139,1.139,0,0,1,1.149,1.108,1.112,1.112,0,0,1-.321.8,1.125,1.125,0,0,1-.789.349Z" transform="translate(-121.696 -88.856)" fill="#fff"/>
          <path id="Path_360" data-name="Path 360" d="M129.828,184.246a1.128,1.128,0,0,1-.02-2.256h0a1.14,1.14,0,0,1,1.15,1.107,1.145,1.145,0,0,1-1.11,1.148Z" transform="translate(-81.131 -114.725)" fill="#fff"/>
          <path id="Path_361" data-name="Path 361" d="M176.15,47.211a3.773,3.773,0,0,1-3.744-3.762,3.7,3.7,0,0,1,3.727-3.749,3.728,3.728,0,0,1,2.714,6.366,3.807,3.807,0,0,1-2.688,1.145Zm.011-5.263a1.452,1.452,0,0,0-1.482,1.473,1.5,1.5,0,0,0,.428,1.071,1.468,1.468,0,0,0,1.045.434,1.528,1.528,0,0,0,1.515-1.488,1.5,1.5,0,0,0-1.5-1.49Z" transform="translate(-108.684 -25.027)" fill="#fff"/>
        </g>
      </g>
    </g>
  </g>
</svg>
