<svg xmlns="http://www.w3.org/2000/svg" xmlns:xlink="http://www.w3.org/1999/xlink" width="78.43" height="73.786" viewBox="0 0 78.43 73.786">
  <defs>
    <clipPath id="clip-path">
      <rect id="Rectangle_161" data-name="Rectangle 161" width="78.43" height="73.786" fill="#fff"/>
    </clipPath>
  </defs>
  <g id="Group_503" data-name="Group 503" transform="translate(-687.709 -3119.739)">
    <g id="Group_302" data-name="Group 302" transform="translate(690.923 3122.763)">
      <g id="Group_301" data-name="Group 301" transform="translate(-3.215 -3.024)" clip-path="url(#clip-path)">
        <path id="Path_362" data-name="Path 362" d="M9.893,43.134a1.135,1.135,0,0,0,.428-.089c.688-.279.7-.916.7-1.427a30.759,30.759,0,0,1,8.258-20.653,4.955,4.955,0,0,0,2.5.753,4.122,4.122,0,0,0,2.54-.92,4.255,4.255,0,0,0,1.4-5.151l.038-.025c.079-.05.149-.1.22-.139a31.079,31.079,0,0,1,15.737-4.506,1.708,1.708,0,0,0,1.244-.394,1,1,0,0,0,.262-.743c-.012-.718-.512-1.083-1.485-1.083H41.68a32.438,32.438,0,0,0-12.7,2.708c-1.121.5-2.232,1.072-3.307,1.628-.48.249-.962.5-1.449.743l-.03-.019c-.087-.056-.191-.123-.3-.185a4.372,4.372,0,0,0-2.186-.589A4.31,4.31,0,0,0,19,14,4.189,4.189,0,0,0,17.627,18.7a.909.909,0,0,1-.261,1.088A32.514,32.514,0,0,0,9.295,36.368c-.142.842-.249,1.7-.352,2.536-.048.39-.1.779-.15,1.186v2.384l.035.039a1.479,1.479,0,0,0,1.065.621M23.214,15.889a2.094,2.094,0,0,1,.618,1.5,2.151,2.151,0,0,1-2.112,2.092,2.127,2.127,0,0,1-1.5-.643,2.1,2.1,0,0,1-.616-1.491,2.156,2.156,0,0,1,2.108-2.091l.011-.138v.138a2.092,2.092,0,0,1,1.492.633" transform="translate(-4.412 -4.395)" fill="#fff"/>
        <path id="Path_363" data-name="Path 363" d="M106.842,73.338a1.14,1.14,0,0,0-.427.088c-.636.258-.671.826-.7,1.327l-.005.092c-.021.324-.039.649-.057.975a28.093,28.093,0,0,1-.315,3.322c-2,11.308-8.382,19.392-18.964,24.029a29.045,29.045,0,0,1-11.485,2.324,1.23,1.23,0,0,0-1.3.7c-.265.653.1,1.1.534,1.49l.04.035h2.532l.175-.04c.109-.026.219-.053.329-.069.549-.085,1.1-.159,1.651-.233,1.144-.153,2.326-.311,3.469-.572a33.216,33.216,0,0,0,25.12-26.629c.138-.826.247-1.67.352-2.487.05-.387.1-.773.153-1.178V74l-.035-.039a1.478,1.478,0,0,0-1.066-.621" transform="translate(-36.883 -36.802)" fill="#fff"/>
        <path id="Path_364" data-name="Path 364" d="M45.328,134.85c-.378-.009-.757,0-1.129,0-.275-1.071.383-2.662-1.309-2.695-1.8-.034-1.071,1.632-1.39,2.7-.395,0-.8-.012-1.213,0-.92.032-1.45.5-1.44,1.261.01.724.519,1.181,1.392,1.224.43.021.863,0,1.327,0,.1,1.055-.195,2.105.78,2.762h1c1-.661.684-1.755.81-2.759.434,0,.791.008,1.147,0,1.01-.028,1.541-.455,1.548-1.236s-.53-1.234-1.525-1.257" transform="translate(-19.495 -66.317)" fill="#fff"/>
        <path id="Path_365" data-name="Path 365" d="M150.826,24.921a15.938,15.938,0,0,0-2.654-.022,1.209,1.209,0,0,0-1.281,1.234,1.232,1.232,0,0,0,1.292,1.233c.69.035,1.386-.019,2.076.021a1.992,1.992,0,0,0,1.884-.768v-1a4.285,4.285,0,0,0-1.317-.7" transform="translate(-73.713 -12.472)" fill="#fff"/>
        <path id="Path_366" data-name="Path 366" d="M3.959,118.177c-.718-.035-1.441.017-2.159-.021a1.917,1.917,0,0,0-1.8.768v1a4.281,4.281,0,0,0,1.317.7,15.826,15.826,0,0,0,2.653.022,1.209,1.209,0,0,0,1.28-1.234,1.23,1.23,0,0,0-1.291-1.232" transform="translate(0 -59.291)" fill="#fff"/>
        <path id="Path_367" data-name="Path 367" d="M65.532,33.351a1.25,1.25,0,0,1-1.467-.188,23,23,0,0,0-16.794-4.208A23.307,23.307,0,0,0,27.538,47.376a1.183,1.183,0,0,1-.781,1.018,3.8,3.8,0,0,0-2.467,3.627,3.869,3.869,0,0,0,2.472,3.709,1.12,1.12,0,0,1,.767.936,23.321,23.321,0,0,0,32.36,16.682A35.692,35.692,0,0,0,64.6,70.552c.9-.58,1.042-1.315.566-1.958s-1.193-.662-2.043-.036c-.067.049-.134.1-.2.15a20.876,20.876,0,0,1-29.95-5.224,19.891,19.891,0,0,1-3.075-7.7c3.227-2.081,3.214-4.749-.047-7.574,1.886-8.046,6.631-13.615,14.62-16.068,6.666-2.047,12.869-.725,18.528,3.3-2.29,4.227,1.135,9.243,6.377,8,.074.162.156.332.229.506a20.659,20.659,0,0,1,.712,14.315,21.814,21.814,0,0,1-3.437,6.607,1.885,1.885,0,0,0-.243,1.428,1.212,1.212,0,0,0,.98.684,2.246,2.246,0,0,0,1.334-.8c5.286-7.211,6.193-14.994,2.916-23.274a1.364,1.364,0,0,1,.17-1.548,5.351,5.351,0,0,0-6.506-8.014M28.358,53.557a1.5,1.5,0,1,1-.038-3,1.5,1.5,0,0,1,.038,3M70.563,38.326A2.9,2.9,0,1,1,67.846,35.4a2.91,2.91,0,0,1,2.717,2.927" transform="translate(-12.188 -14.422)" fill="#fff"/>
        <path id="Path_368" data-name="Path 368" d="M53.453,55.785c.562-.922.209-1.848-.721-2.02a1.341,1.341,0,0,0-1.478.829c-2.624,4.5-2.87,9.125-.376,13.7a13.058,13.058,0,0,0,11.105,7.159c8.314.011,14.492-6.018,14.572-13.377A13.672,13.672,0,0,0,60.585,48.335a12.987,12.987,0,0,0-5.156,2.016,1.243,1.243,0,1,0,1.3,2.116c.148-.077.285-.173.428-.258a11.166,11.166,0,1,1-5.341,7.985,11.748,11.748,0,0,1,1.634-4.409" transform="translate(-24.66 -24.164)" fill="#fff"/>
        <path id="Path_369" data-name="Path 369" d="M62.625,70.034c.9.269,2.08.235,2.647.813.593.6.59,1.784.871,2.705a2.609,2.609,0,0,0,5.034.033c.234-.767.376-1.562.633-2.32a1.113,1.113,0,0,1,.62-.609c.787-.263,1.612-.407,2.4-.658a2.6,2.6,0,0,0-.129-5c-.9-.269-2.08-.236-2.647-.814-.593-.6-.589-1.784-.87-2.706a2.612,2.612,0,0,0-5.059.05c-.218.743-.358,1.51-.608,2.241a1.125,1.125,0,0,1-.618.618c-.732.249-1.5.384-2.246.6a2.6,2.6,0,0,0-.033,5.047m3.019-3.224a2.856,2.856,0,0,0,2.319-2.324c.18-.8.394-1.583.593-2.374l.219-.007c.191.757.41,1.509.568,2.273a2.925,2.925,0,0,0,2.479,2.464A8.927,8.927,0,0,1,74.1,67.6c-.693.187-1.376.43-2.08.549A3.023,3.023,0,0,0,69.3,70.866a6.608,6.608,0,0,1-.727,2.057c-.191-.729-.42-1.449-.563-2.187a2.97,2.97,0,0,0-2.576-2.566c-.73-.14-1.443-.361-2.164-.545,0-.072-.006-.144-.008-.217.795-.2,1.586-.415,2.384-.6" transform="translate(-30.448 -29.878)" fill="#fff"/>
        <path id="Path_370" data-name="Path 370" d="M103.818,5.24c.458.027.918,0,1.45,0,0,.576-.024,1.017.005,1.454a1.239,1.239,0,1,0,2.476.016c.029-.459.006-.921.006-1.466.483,0,.838.005,1.194,0,1-.019,1.552-.449,1.572-1.219.02-.791-.554-1.252-1.6-1.275-.352-.008-.7,0-1.168,0,0-.562.025-1.027-.006-1.489a1.235,1.235,0,1,0-2.47-.024c-.036.462-.006.93-.006,1.524-.6,0-1.044-.025-1.483.005a1.236,1.236,0,1,0,.028,2.47" transform="translate(-51.444 -0.001)" fill="#fff"/>
        <path id="Path_371" data-name="Path 371" d="M139.762,16.312a1.138,1.138,0,0,0,1.255-1.077,12.309,12.309,0,0,0,.011-1.492,12.865,12.865,0,0,0-.013-1.575,1.22,1.22,0,0,0-2.431.082c-.036.968-.033,1.939,0,2.907a1.123,1.123,0,0,0,1.177,1.155" transform="translate(-69.532 -5.565)" fill="#fff"/>
        <path id="Path_372" data-name="Path 372" d="M16.333,105.463a1.126,1.126,0,0,0-1.151-1.093,1.072,1.072,0,0,0-1.241.975,22.829,22.829,0,0,0-.013,3.229,1.08,1.08,0,0,0,1.216,1.012,1.13,1.13,0,0,0,1.2-1.135c.036-.5.007-1,.007-1.494h0c0-.5.036-1-.009-1.494" transform="translate(-6.964 -52.374)" fill="#fff"/>
        <path id="Path_373" data-name="Path 373" d="M16.329,127.636a1.124,1.124,0,0,0-1.133-1.113,1.1,1.1,0,0,0-1.281,1.034,23,23,0,0,0,0,3.15,1.1,1.1,0,0,0,1.2,1.037,1.137,1.137,0,0,0,1.215-1.118c.043-.495.008-1,.008-1.495s.028-1-.007-1.495" transform="translate(-6.955 -63.49)" fill="#fff"/>
        <path id="Path_374" data-name="Path 374" d="M125.819,27.373a27.518,27.518,0,0,0,2.993,0,1.155,1.155,0,0,0,1.135-1.209,1.206,1.206,0,0,0-1.2-1.229c-.468-.037-.943-.007-1.414-.007v.007c-.5,0-1-.035-1.5.008a1.136,1.136,0,0,0-1.127,1.207,1.122,1.122,0,0,0,1.113,1.22" transform="translate(-62.58 -12.505)" fill="#fff"/>
        <path id="Path_375" data-name="Path 375" d="M139.756,38.469a1.136,1.136,0,0,0,1.258-1.071,11.716,11.716,0,0,0,.013-1.492,13.5,13.5,0,0,0-.011-1.575,1.131,1.131,0,0,0-1.251-1.077,1.115,1.115,0,0,0-1.18,1.148c-.035.967-.038,1.938,0,2.906a1.127,1.127,0,0,0,1.172,1.16" transform="translate(-69.531 -16.688)" fill="#fff"/>
        <path id="Path_376" data-name="Path 376" d="M26.408,118.233a25.382,25.382,0,0,0-3.157,0,1.089,1.089,0,0,0-1.032,1.2,1.141,1.141,0,0,0,1.127,1.208c.468.041.942.008,1.413.007.527,0,1.057.036,1.58-.01a1.136,1.136,0,0,0,1.114-1.218,1.094,1.094,0,0,0-1.046-1.191" transform="translate(-11.15 -59.307)" fill="#fff"/>
      </g>
    </g>
  </g>
</svg>
