<svg xmlns="http://www.w3.org/2000/svg" xmlns:xlink="http://www.w3.org/1999/xlink" width="58.971" height="58.895" viewBox="0 0 58.971 58.895">
  <defs>
    <clipPath id="clip-path">
      <rect id="Rectangle_163" data-name="Rectangle 163" width="58.971" height="58.895" fill="#fff"/>
    </clipPath>
  </defs>
  <g id="Group_505" data-name="Group 505" transform="translate(-1409.393 -3126.33)">
    <g id="Group_306" data-name="Group 306" transform="translate(1409.393 3126.33)">
      <g id="Group_305" data-name="Group 305" clip-path="url(#clip-path)">
        <path id="Path_384" data-name="Path 384" d="M32.961,58.895a7.39,7.39,0,0,1-1.617-.175c-.94-.212-1.878-.521-2.785-.821l-.4-.131c-1.469-.482-2.934-.975-4.4-1.468q-1.1-.371-2.208-.741L10.5,51.867c-.061-.02-.123-.037-.2-.057l-.228-.064-.162.495c-.094.285-.187.569-.275.853a1.164,1.164,0,0,1-1.259.939l-7.077,0A1.147,1.147,0,0,1,0,52.749V30.907c0-.887.381-1.3,1.2-1.3.051,0,.1,0,.157,0a51.759,51.759,0,0,1,9.759,1.354,9.8,9.8,0,0,1,2.622,1.025,1.388,1.388,0,0,1,.794,1.639,4.231,4.231,0,0,0-.078.653c-.007.1-.014.21-.025.318l-.009.1,1.708.392.038-.084c.081-.173.16-.347.239-.521.169-.372.344-.757.532-1.126a60.664,60.664,0,0,1,4.34-7.036c1.937-2.775,4.093-5.622,6.786-8.961l.251-.33H25.874a1.111,1.111,0,0,1-1.129-.727,1.1,1.1,0,0,1,.1-1.014,1.07,1.07,0,0,1,.864-.491c.2-.008.393-.011.594-.011.159,0,.854.006,1.048.006h.29l-.722-.667c-.334-.306-.648-.594-.956-.889a37.256,37.256,0,0,1-4.914-5.48,9.645,9.645,0,0,1-1.646-3.3,3.188,3.188,0,0,1,.272-2.38A2.47,2.47,0,0,1,21.812.791c.094-.006.187-.008.28-.008a8.315,8.315,0,0,1,3.258.857,31.365,31.365,0,0,1,4.594,2.524l.469.3.229-.308c.115-.157.23-.312.347-.466A14.237,14.237,0,0,1,33.717.8,3.481,3.481,0,0,1,35.45.011Q35.564,0,35.673,0a3.244,3.244,0,0,1,1.982.85,14.857,14.857,0,0,1,2.786,3.012c.083.111.44.6.44.6L41.3,4.2c.263-.166.523-.331.784-.494a25.324,25.324,0,0,1,4.84-2.452A6.745,6.745,0,0,1,49.26.777c.063,0,.126,0,.189,0a2.548,2.548,0,0,1,1.9.885,2.957,2.957,0,0,1,.641,2.251,8.575,8.575,0,0,1-1.8,3.934A40.967,40.967,0,0,1,44.5,14.015l-.78.71.233.037.094.017a.859.859,0,0,0,.156.02H45c.185,0,.37,0,.554.008a1.072,1.072,0,0,1,1.074,1.076,1.088,1.088,0,0,1-1.073,1.147c-.274.008-.548.01-.823.01l-1.781,0s.985,1.267,1.227,1.581a111.576,111.576,0,0,1,9.6,14.183,29.158,29.158,0,0,1,2.318,5.293,10.746,10.746,0,0,1,.275,4.753c-.024.176-.053.351-.082.525-.042.249-.083.5-.109.749a.545.545,0,0,0,.209.429,8.081,8.081,0,0,1,2.383,2.759c.052.1.1.2.144.3l.059.129v.533a1.747,1.747,0,0,1-1.038.9q-2.3,1.037-4.585,2.089c-2.7,1.235-5.489,2.512-8.252,3.726a69.764,69.764,0,0,1-9.2,3.456,10.883,10.883,0,0,1-2.934.45M14,37.048c-.883,4.348-2.073,8.535-3.227,12.413l-.026.086.123.073a.46.46,0,0,0,.1.053l3.016,1q2.97.986,5.938,1.979l2.062.69c2.557.855,5.2,1.738,7.785,2.65a9.809,9.809,0,0,0,3.29.617,7.789,7.789,0,0,0,2.064-.279,67.819,67.819,0,0,0,8.851-3.3c2.28-.981,4.572-2.037,6.789-3.057q1.46-.672,2.922-1.339l2.51-1.145-.142-.19a1.181,1.181,0,0,0-.1-.131,5.6,5.6,0,0,0-4.116-1.888,6.147,6.147,0,0,0-1.427.176c-3.154.758-6.352,1.564-9.444,2.344l-3.261.82a9.221,9.221,0,0,1-2.233.29,7.724,7.724,0,0,1-1.2-.092c-.636-.1-1.28-.232-1.9-.361-.246-.051-.492-.1-.738-.15q-4.234-.842-8.467-1.686a1.1,1.1,0,0,1-.846-.608,1.076,1.076,0,0,1,.1-1.187,1.014,1.014,0,0,1,.87-.435,1.9,1.9,0,0,1,.368.039l3.034.61q3.032.61,6.065,1.212l.267.053a18.513,18.513,0,0,0,2.183.346q.186.014.368.014a9.613,9.613,0,0,0,2.554-.462c.385-.106.783-.216,1.174-.3l.065-.014.035-.108a.247.247,0,0,0,.019-.081,1.264,1.264,0,0,0-.005-.142,3.64,3.64,0,0,0-2.5-3.374,30.553,30.553,0,0,0-3.38-.922c-1.769-.407-3.571-.8-5.314-1.19q-1.338-.294-2.675-.592l-9.68-2.163c-.393-.087-.789-.168-1.19-.251l-.657-.136ZM2.262,51.79H7.679l.069-.181a2.035,2.035,0,0,0,.07-.195q.422-1.471.847-2.941c.687-2.38,1.4-4.841,2.068-7.269a57.617,57.617,0,0,0,1.462-6.916c.084-.564.056-.659-.485-.8l-.4-.109c-.947-.256-1.927-.521-2.908-.692-1.187-.208-2.4-.361-3.579-.509l-1.038-.131c-.32-.042-.646-.063-.961-.083-.146-.009-.291-.018-.437-.029l-.122-.009ZM36.79,34.679l.075.027c.207.075.412.145.615.215.454.156.883.3,1.306.482a4.852,4.852,0,0,1,2.37,1.888,4.01,4.01,0,0,1-.352,4.591.509.509,0,0,0-.034.65,9.3,9.3,0,0,1,.589,1.328,7.592,7.592,0,0,1,.228.892c.031.143.062.288.1.436l.027.111s4.912-1.224,6.3-1.567c.243-.06.486-.125.729-.19a10.88,10.88,0,0,1,2.781-.489c.067,0,.135,0,.2,0,.5.019.988.073,1.506.131.234.026.471.053.71.076l.107.011.017-.106a11.521,11.521,0,0,0,.144-3.275,13.887,13.887,0,0,0-1.433-4.142,60.66,60.66,0,0,0-4.222-7.216c-2.412-3.641-5.117-7.317-8.273-11.237a.629.629,0,0,0-.537-.27q-2.359.009-4.711.008-1.73,0-3.461,0a.633.633,0,0,0-.55.265q-1.024,1.315-2.055,2.625c-1.395,1.775-2.837,3.612-4.222,5.443A66.675,66.675,0,0,0,19.448,33.4c-.249.452-.474.906-.713,1.387-.109.22-.219.442-.333.667l-.066.131,16.19,3.6V36.567l-.181-.05a1.6,1.6,0,0,1-.174-.052c-.243-.1-.489-.185-.736-.274a12.642,12.642,0,0,1-1.625-.678,3.8,3.8,0,0,1-2.206-3.732,4.36,4.36,0,0,1,2.053-3.456,6.835,6.835,0,0,1,2.784-1.115l.093-.017V26.72c0-.285,0-.567,0-.848a1.126,1.126,0,0,1,1.073-1.213h0a1.124,1.124,0,0,1,1.164,1.19c0,.293,0,1.264,0,1.264l.077.025c.208.07.414.134.617.2a9.869,9.869,0,0,1,1.229.436,4.7,4.7,0,0,1,3,3.746,1.121,1.121,0,0,1-.907,1.29,1.447,1.447,0,0,1-.2.015,1.025,1.025,0,0,1-1.1-.953c-.077-1.307-1.71-2.24-2.574-2.312l-.123-.01Zm-.011,5,2.14.948.055-.064a1.746,1.746,0,0,0,.178-2.209,3.9,3.9,0,0,0-2.227-1.277l-.145-.043ZM34.391,29.52a3.85,3.85,0,0,0-1.947,1.056,1.843,1.843,0,0,0-.578,1.641,2.913,2.913,0,0,0,2.487,1.938l.18-.007V29.484ZM22.006,3.011a.465.465,0,0,0-.378.154.694.694,0,0,0-.084.585,4.81,4.81,0,0,0,.3,1,12.865,12.865,0,0,0,2.111,3.136,55.079,55.079,0,0,0,6.756,6.576,1.165,1.165,0,0,0,.8.308c.665-.008,1.312-.01,1.959-.01l2.055,0,.113.006H37.5c.816,0,1.632,0,2.448-.008a.76.76,0,0,0,.474-.181L41.6,13.522c1.227-1.106,2.5-2.25,3.706-3.415A23.663,23.663,0,0,0,48.8,5.962a5.346,5.346,0,0,0,.959-2.243.718.718,0,0,0-.1-.579.444.444,0,0,0-.349-.133,1.2,1.2,0,0,0-.225.024,9.771,9.771,0,0,0-1.809.491,29.612,29.612,0,0,0-5.907,3.344,1.459,1.459,0,0,1-.819.3,1.181,1.181,0,0,1-.974-.622,19.105,19.105,0,0,0-3.093-3.763c-.413-.368-.618-.551-.852-.551s-.438.186-.839.555A18.05,18.05,0,0,0,31.765,6.51a1.254,1.254,0,0,1-1.06.626,1.367,1.367,0,0,1-.786-.269,28.443,28.443,0,0,0-5.757-3.289,10.339,10.339,0,0,0-1.96-.547,1.023,1.023,0,0,0-.195-.021" fill="#fff"/>
      </g>
    </g>
  </g>
</svg>
