<svg xmlns="http://www.w3.org/2000/svg" xmlns:xlink="http://www.w3.org/1999/xlink" width="200.529" height="200.527" viewBox="0 0 200.529 200.527">
  <defs>
    <clipPath id="clip-path">
      <rect id="Rectangle_119" data-name="Rectangle 119" width="200.529" height="200.527" fill="#15f2c0"/>
    </clipPath>
  </defs>
  <g id="Group_501" data-name="Group 501" transform="translate(-592.5 -3095.274)">
    <g id="Group_245" data-name="Group 245" transform="translate(592.5 3095.274)">
      <g id="Group_244" data-name="Group 244" transform="translate(0)" clip-path="url(#clip-path)">
        <path id="Path_265" data-name="Path 265" d="M91.621,149.761a58.139,58.139,0,1,1,58.139-58.139,58.2,58.2,0,0,1-58.139,58.139m0-115.65a57.51,57.51,0,1,0,57.51,57.51,57.575,57.575,0,0,0-57.51-57.51" transform="translate(8.642 8.642)" fill="#15f2c0"/>
        <path id="Path_266" data-name="Path 266" d="M93.138,158.67A65.531,65.531,0,1,1,158.67,93.139,65.6,65.6,0,0,1,93.138,158.67m0-130.434a64.9,64.9,0,1,0,64.9,64.9,64.976,64.976,0,0,0-64.9-64.9" transform="translate(7.125 7.125)" fill="#15f2c0"/>
        <path id="Path_267" data-name="Path 267" d="M79.694,148.875V145.1A65.481,65.481,0,0,0,145.1,79.695h3.774a69.26,69.26,0,0,1-69.18,69.18" transform="translate(20.569 20.569)" fill="#15f2c0"/>
        <path id="Path_268" data-name="Path 268" d="M94.654,168.677a74.023,74.023,0,1,1,74.023-74.023,74.107,74.107,0,0,1-74.023,74.023m0-147.418a73.394,73.394,0,1,0,73.394,73.4,73.477,73.477,0,0,0-73.394-73.4" transform="translate(5.325 5.325)" fill="#15f2c0"/>
        <path id="Path_269" data-name="Path 269" d="M96.619,180.221a83.6,83.6,0,1,1,83.6-83.6,83.7,83.7,0,0,1-83.6,83.6m0-166.262a82.659,82.659,0,1,0,82.659,82.66A82.754,82.754,0,0,0,96.619,13.96" transform="translate(3.359 3.359)" fill="#15f2c0"/>
        <path id="Path_270" data-name="Path 270" d="M79.468,167.134v-3.774a83.986,83.986,0,0,0,83.891-83.891h3.774a87.765,87.765,0,0,1-87.666,87.666" transform="translate(20.511 20.511)" fill="#15f2c0"/>
        <rect id="Rectangle_111" data-name="Rectangle 111" width="21.122" height="0.629" transform="translate(150.313 49.75) rotate(-44.92)" fill="#15f2c0"/>
        <rect id="Rectangle_112" data-name="Rectangle 112" width="21.122" height="0.629" transform="matrix(0.707, -0.707, 0.707, 0.707, 34.825, 165.257)" fill="#15f2c0"/>
        <rect id="Rectangle_113" data-name="Rectangle 113" width="0.629" height="47.58" transform="translate(99.949)" fill="#15f2c0"/>
        <rect id="Rectangle_114" data-name="Rectangle 114" width="0.629" height="47.579" transform="translate(99.949 152.949)" fill="#15f2c0"/>
        <rect id="Rectangle_115" data-name="Rectangle 115" width="47.58" height="0.629" transform="translate(152.949 99.95)" fill="#15f2c0"/>
        <rect id="Rectangle_116" data-name="Rectangle 116" width="47.579" height="0.629" transform="translate(0 99.95)" fill="#15f2c0"/>
        <rect id="Rectangle_117" data-name="Rectangle 117" width="15.921" height="0.629" transform="translate(19.126 99.95)" fill="#15f2c0"/>
        <rect id="Rectangle_118" data-name="Rectangle 118" width="15.92" height="0.629" transform="translate(165.481 99.95)" fill="#15f2c0"/>
        <path id="Path_271" data-name="Path 271" d="M22.145,135.313l-.164-.268a88.761,88.761,0,0,1,0-91.765l.164-.268,6.733,4.07-.164.27a80.881,80.881,0,0,0,0,83.621l.164.269Zm.213-91.436a88.127,88.127,0,0,0,0,90.572l5.656-3.42a81.513,81.513,0,0,1,0-83.733Z" transform="translate(2.375 11.101)" fill="#15f2c0"/>
        <path id="Path_272" data-name="Path 272" d="M141.281,135.311l-6.735-4.069.164-.27a80.881,80.881,0,0,0,0-83.621l-.164-.27,6.735-4.069.164.268a88.759,88.759,0,0,1,0,91.763Zm-5.87-4.283,5.658,3.42a88.127,88.127,0,0,0,0-90.572l-5.658,3.418a81.515,81.515,0,0,1,0,83.734" transform="translate(34.726 11.101)" fill="#15f2c0"/>
        <path id="Path_273" data-name="Path 273" d="M28.719,94.476H22.428A72.129,72.129,0,0,1,94.476,22.428v6.291A65.831,65.831,0,0,0,28.719,94.476" transform="translate(5.789 5.789)" fill="#15f2c0"/>
        <path id="Path_274" data-name="Path 274" d="M84.729,140.119a73.1,73.1,0,0,1-24.541-4.211l1.263-3.555a69.756,69.756,0,0,0,53.371-2.842l1.637,3.4a72.62,72.62,0,0,1-31.731,7.208" transform="translate(15.535 33.427)" fill="#15f2c0"/>
        <path id="Path_275" data-name="Path 275" d="M119.921,45.9a65.173,65.173,0,0,0-17.807-12.607l1.091-2.268A67.739,67.739,0,0,1,121.7,44.113Z" transform="translate(26.356 8.007)" fill="#15f2c0"/>
        <path id="Path_276" data-name="Path 276" d="M155.721,87.2h-3.774a88.305,88.305,0,0,0-7.583-35.988l3.45-1.527A92.013,92.013,0,0,1,155.721,87.2" transform="translate(37.26 12.822)" fill="#15f2c0"/>
        <path id="Path_277" data-name="Path 277" d="M8.571,106.821A92.964,92.964,0,0,1,11.8,54.328l3.545,1.3a89.181,89.181,0,0,0-3.1,50.352Z" transform="translate(1.606 14.022)" fill="#15f2c0"/>
      </g>
    </g>
  </g>
</svg>
