<svg xmlns="http://www.w3.org/2000/svg" xmlns:xlink="http://www.w3.org/1999/xlink" width="300.766" height="112.522" viewBox="0 0 300.766 112.522">
  <defs>
    <filter id="Line_1" x="269.266" y="0.592" width="31.5" height="110.781" filterUnits="userSpaceOnUse">
      <feOffset input="SourceAlpha"/>
      <feGaussianBlur stdDeviation="5" result="blur"/>
      <feFlood flood-color="#15f2c0"/>
      <feComposite operator="in" in2="blur"/>
      <feComposite in="SourceGraphic"/>
    </filter>
    <clipPath id="clip-path">
      <rect id="Rectangle_51" data-name="Rectangle 51" width="270.033" height="80.837" transform="translate(37.672)" fill="none" opacity="0.3"/>
    </clipPath>
    <filter id="Line_2" x="0" y="0.437" width="68.042" height="110.91" filterUnits="userSpaceOnUse">
      <feOffset input="SourceAlpha"/>
      <feGaussianBlur stdDeviation="5" result="blur-2"/>
      <feFlood flood-color="#15f2c0"/>
      <feComposite operator="in" in2="blur-2"/>
      <feComposite in="SourceGraphic"/>
    </filter>
    <filter id="Path_179" x="10.288" y="0" width="282.282" height="112.522" filterUnits="userSpaceOnUse">
      <feOffset input="SourceAlpha"/>
      <feGaussianBlur stdDeviation="5" result="blur-3"/>
      <feFlood flood-color="#15f2c0"/>
      <feComposite operator="in" in2="blur-3"/>
      <feComposite in="SourceGraphic"/>
    </filter>
  </defs>
  <g id="Group_501" data-name="Group 501" transform="translate(-543.318 -665.127)">
    <g id="Group_236" data-name="Group 236" transform="translate(873.179 761.712) rotate(180)">
      <g transform="matrix(-1, 0, 0, -1, 329.86, 96.59)" filter="url(#Line_1)">
        <line id="Line_1-2" data-name="Line 1" y1="80.781" transform="translate(285.02 96.37) rotate(180)" fill="none" stroke="#15f2c0" stroke-width="1.5"/>
      </g>
      <g id="Mask_Group_161" data-name="Mask Group 161" transform="translate(0 0)" opacity="0.35" clip-path="url(#clip-path)">
        <path id="Path_178" data-name="Path 178" d="M284.641.1,247.716,80.932,34.567,80.771V0H.828Z" transform="translate(18.732 0)"/>
        <rect id="Rectangle_54" data-name="Rectangle 54" width="272.373" height="80.837" transform="translate(-17.365)" fill="none"/>
      </g>
      <g transform="matrix(-1, 0, 0, -1, 329.86, 96.59)" filter="url(#Line_2)">
        <line id="Line_2-2" data-name="Line 2" y1="80.287" x2="36.677" transform="translate(52.36 96.04) rotate(180)" fill="none" stroke="#15f2c0" stroke-width="1.5"/>
      </g>
      <rect id="Rectangle_52" data-name="Rectangle 52" width="226.836" height="81.084" transform="translate(41.626 0)" fill="none"/>
      <rect id="Rectangle_53" data-name="Rectangle 53" width="226.836" height="81.082" transform="translate(41.626)" fill="none"/>
      <g transform="matrix(-1, 0, 0, -1, 329.86, 96.59)" filter="url(#Path_179)">
        <path id="Path_179-2" data-name="Path 179" d="M284.365,0,247.44,80.835H34V-.187Z" transform="translate(310.82 96.59) rotate(180)" fill="none" stroke="#15f2c0" stroke-width="1.5"/>
      </g>
      <path id="Path_177" data-name="Path 177" d="M25.929,17.433,33.815,0H31.5L23.611,17.433Zm-7.874,0L25.941,0H23.626L15.741,17.433Zm-7.87,0L18.074,0H15.759L7.867,17.433Zm-7.87,0L10.2,0H7.886L0,17.433Z" transform="translate(252.472)" fill="#15f2c0"/>
    </g>
  </g>
</svg>
