<?xml version="1.0" encoding="utf-8"?>
<!-- Generator: Adobe Illustrator 26.0.1, SVG Export Plug-In . SVG Version: 6.00 Build 0)  -->
<svg version="1.1" id="Layer_1" xmlns="http://www.w3.org/2000/svg" xmlns:xlink="http://www.w3.org/1999/xlink" x="0px" y="0px"
	 viewBox="0 0 1200 520" style="enable-background:new 0 0 1200 520;" xml:space="preserve">
<style type="text/css">
	.st0{opacity:0.1;}
	.st1{fill:#F9F9F9;}
	.st2{fill:none;stroke:#000000;stroke-width:21;stroke-linecap:round;stroke-linejoin:round;}
	.st3{fill:none;stroke:#000000;stroke-width:21;stroke-linecap:round;stroke-linejoin:round;stroke-dasharray:0,49.1852;}
	.st4{fill:none;stroke:#000000;stroke-miterlimit:10;}
	.st5{opacity:0.1;fill:#4DFFFF;}
	.st6{fill:#4DFFFF;}
	.st7{opacity:0.9;fill:#4DFFFF;}
	.st8{opacity:0.8;fill:#4DFFFF;}
	.st9{opacity:0.7;fill:#4DFFFF;}
	.st10{opacity:0.6;fill:#4DFFFF;}
	.st11{opacity:0.5;fill:#4DFFFF;}
	.st12{opacity:0.4;fill:#4DFFFF;}
	.st13{opacity:0.3;fill:#4DFFFF;}
	.st14{opacity:0.2;fill:#4DFFFF;}
	.st15{opacity:0.2;}
	.st16{opacity:0.4;}
	.st17{fill:#FFFFFF;}
	.st18{fill:#0068E8;}
	.st19{fill:#BEFFFF;}
	.st20{clip-path:url(#SVGID_00000075139166377729802280000004446730352259878812_);}
	.st21{clip-path:url(#SVGID_00000100343321793795526660000008455426251396934814_);}
	.st22{opacity:0.08;}
	.st23{clip-path:url(#SVGID_00000119823323398200992220000008981501912542296501_);}
	.st24{fill:#15F2C0;}
	.st25{clip-path:url(#SVGID_00000112597791278361505180000017665193002940863648_);}
	.st26{clip-path:url(#SVGID_00000061451624972345746010000017167620916264383672_);}
	.st27{clip-path:url(#SVGID_00000101069857434104575420000009679887912266934459_);}
	.st28{clip-path:url(#SVGID_00000154386418048990002140000010317504060790339737_);}
	.st29{clip-path:url(#SVGID_00000159437523197385134990000005591327046185412279_);}
	.st30{fill:url(#Path_1_00000170251607489535362390000016630007318230994069_);}
	.st31{fill:url(#Path_2_00000001661774477524199800000000694799712185362856_);}
	.st32{fill:url(#Path_3_00000008841941748423264010000001700889758458448050_);}
	.st33{fill:url(#Path_4_00000129911497873973608530000016779571414738832574_);}
	.st34{fill:url(#Path_5_00000024003785594665275840000011130116025297947274_);}
	.st35{fill:url(#Path_6_00000077317173964924287940000000625247404693291704_);}
	.st36{fill:url(#Path_7_00000122688033062595605540000006730703842365777038_);}
	.st37{fill:url(#Path_8_00000082356738069684204630000018277026376767162770_);}
	.st38{fill:url(#Path_9_00000026162010463670634900000006009062490789275325_);}
	.st39{fill:url(#Path_10_00000057833007069605734050000014288439751630555528_);}
	.st40{fill:#F7FAFB;}
	.st41{fill:none;stroke:#000000;stroke-width:2;stroke-miterlimit:10;}
	.st42{fill:url(#SVGID_00000065041076643015972740000005243764147435625359_);}
	.st43{fill:url(#SVGID_00000147215402750439394740000013553471442268021148_);}
	.st44{opacity:0.5;}
	.st45{opacity:0.7;}
	.st46{opacity:0.15;}
	.st47{opacity:0;fill:#15F2C0;}
	.st48{opacity:0.01;fill:#15F2C0;}
	.st49{opacity:0.03;fill:#15F2C0;}
	.st50{opacity:0.05;fill:#15F2C0;}
	.st51{opacity:0.07;fill:#15F2C0;}
	.st52{opacity:0.09;fill:#15F2C0;}
	.st53{opacity:0.11;fill:#15F2C0;}
	.st54{opacity:0.13;fill:#15F2C0;}
	.st55{opacity:0.17;fill:#15F2C0;}
	.st56{opacity:0.2;fill:#15F2C0;}
	.st57{opacity:0.23;fill:#15F2C0;}
	.st58{opacity:0.25;fill:#15F2C0;}
	.st59{opacity:0.27;fill:#15F2C0;}
	.st60{opacity:0.29;fill:#15F2C0;}
	.st61{opacity:0.31;fill:#15F2C0;}
	.st62{opacity:0.34;fill:#15F2C0;}
	.st63{opacity:0.37;fill:#15F2C0;}
	.st64{opacity:0.4;fill:#15F2C0;}
	.st65{opacity:0.43;fill:#15F2C0;}
	.st66{opacity:0.45;fill:#15F2C0;}
	.st67{opacity:0.48;fill:#15F2C0;}
	.st68{opacity:0.5;fill:#15F2C0;}
	.st69{opacity:0.53;fill:#15F2C0;}
	.st70{opacity:0.57;fill:#15F2C0;}
	.st71{opacity:0.6;fill:#15F2C0;}
	.st72{opacity:0.63;fill:#15F2C0;}
	.st73{opacity:0.67;fill:#15F2C0;}
	.st74{opacity:0.7;fill:#15F2C0;}
	.st75{opacity:0.75;fill:#15F2C0;}
	.st76{opacity:0.78;fill:#15F2C0;}
	.st77{opacity:0.81;fill:#15F2C0;}
	.st78{opacity:0.85;fill:#15F2C0;}
	.st79{opacity:0.87;fill:#15F2C0;}
	.st80{opacity:0.91;fill:#15F2C0;}
	.st81{opacity:0.94;fill:#15F2C0;}
	.st82{opacity:0.97;fill:#15F2C0;}
	.st83{fill:none;stroke:#15F2C0;stroke-width:0.75;stroke-miterlimit:10;}
	.st84{opacity:0.3;fill:#15F2C0;}
	.st85{opacity:0.8;fill:#15F2C0;}
	.st86{fill:none;stroke:#000000;stroke-width:11;stroke-linecap:round;stroke-linejoin:round;stroke-miterlimit:10;}
	.st87{fill:none;stroke:#000000;stroke-width:20;stroke-miterlimit:10;}
	.st88{fill:#05A2D8;}
	.st89{enable-background:new    ;}
	.st90{fill:none;stroke:#15F2C0;stroke-miterlimit:10;}
	.st91{fill:url(#Ellipse_18_00000062900764031001214410000012700236669656298910_);}
	.st92{fill:url(#Ellipse_17_00000110435037335401606000000007236892908533728158_);}
	.st93{fill:url(#Ellipse_33_00000146489083012357755370000004205908159197751689_);}
	.st94{fill:url(#Ellipse_27_00000067200085992437349620000017432492043829265028_);}
	.st95{fill:url(#Ellipse_29_00000003818334671901658390000011701692533951621018_);}
	.st96{fill:url(#Ellipse_30_00000078037287302376496040000008685585104521624194_);}
	.st97{fill:url(#Ellipse_31_00000022559047077845645750000017333938302278649989_);}
	.st98{fill:url(#Ellipse_32_00000128473572374367633170000003646217506724361640_);}
	.st99{clip-path:url(#SVGID_00000044880784184609784060000009035989524993058442_);}
	.st100{fill:url(#Ellipse_18_00000116955737770256816450000011800671970031105975_);}
	.st101{fill:url(#Ellipse_17_00000078732028513316446000000018019698006357315501_);}
	.st102{fill:url(#Ellipse_33_00000140697579122906255100000014226062056937471875_);}
	.st103{fill:url(#Ellipse_27_00000083069024108706672300000007847866256083398809_);}
	.st104{fill:url(#Ellipse_29_00000176752269793282634040000000273654885220669339_);}
	.st105{fill:url(#Ellipse_30_00000032614227089175645650000007522921228971022747_);}
	.st106{fill:url(#Ellipse_31_00000179640581620944179480000012256077459076213428_);}
	.st107{fill:url(#Ellipse_32_00000059297238321777302210000012017649105497049009_);}
	.st108{fill:url(#Ellipse_15_00000106105950876096796860000017934854735706827190_);}
	.st109{fill:url(#Ellipse_21_00000170254998598510012260000003956677222350793122_);}
	.st110{fill:url(#Ellipse_19_00000171691054025776288160000009406957058605512884_);}
	.st111{fill:url(#Ellipse_20_00000092447116289289566310000000293763852217245629_);}
	.st112{fill:url(#Ellipse_24_00000128467466000076242130000005226105152453037973_);}
</style>
<g>
	<path class="st40" d="M-2584.28,562.13L-3851.71-374.7L-4310.79-11.5l-1.09-2.13l-578.87-1133.97l1038.96,767.95l1191.76-942.87
		l1.12,0.55l1549.76,774.39L553.01-1920.27l2.49,3.02L-1108.62-542.92l-1.14-0.57l-1549.79-774.4l-1188.97,940.67l1266.58,936.2
		L-2584.28,562.13z M-4879.69-1134.54l570.22,1117.01l454.5-359.58L-4879.69-1134.54z"/>
</g>
<g>
	<g id="Group_490" transform="translate(-7 13)">
		<g class="st89">
			<path class="st24" d="M357.58,463.25c-0.63,0.56-1.56,0.85-2.79,0.85h-2.29v5.98h-1.91v-15.4h4.16c1.25,0,2.19,0.28,2.83,0.82
				c0.64,0.55,0.96,1.42,0.96,2.61v2.51C358.52,461.81,358.21,462.69,357.58,463.25z M356.22,456.71c-0.26-0.25-0.66-0.37-1.22-0.37
				h-2.51v6.12H355c0.56,0,0.96-0.13,1.22-0.38s0.38-0.66,0.38-1.22v-2.93C356.61,457.36,356.48,456.96,356.22,456.71z"/>
			<path class="st24" d="M365.25,463v7.08h-1.91v-15.4h1.91v6.69h4.53v-6.69h1.91v15.4h-1.91V463H365.25z"/>
			<path class="st24" d="M378.37,466.19l-0.86,3.89h-1.96l3.72-15.4h2.53l3.65,15.4h-1.96l-0.84-3.89H378.37z M382.3,464.54
				l-1.8-8.4l-1.78,8.4H382.3z"/>
			<path class="st24" d="M396.17,469.15c-0.68,0.62-1.66,0.94-2.94,0.94h-3.12v-1.67h3.34c0.54,0,0.98-0.16,1.32-0.48
				c0.34-0.32,0.51-0.71,0.51-1.17v-2.29c0-0.44-0.11-0.79-0.34-1.07s-0.57-0.41-1.02-0.41h-0.66c-1.09,0-1.94-0.32-2.57-0.96
				c-0.63-0.64-0.95-1.57-0.95-2.78v-0.84c0-1.25,0.34-2.18,1.02-2.8c0.68-0.62,1.66-0.94,2.94-0.94h3.15v1.67h-3.37
				c-0.54,0-0.98,0.16-1.32,0.48c-0.34,0.32-0.51,0.71-0.51,1.17v1.67c0,0.46,0.15,0.83,0.44,1.13c0.29,0.3,0.67,0.45,1.14,0.45
				h0.66c1.04,0,1.85,0.3,2.43,0.9s0.87,1.51,0.87,2.73v1.45C397.2,467.59,396.86,468.52,396.17,469.15z"/>
			<path class="st24" d="M410.13,454.68v1.61h-5.43v5.04h4.88v1.61h-4.88v5.54h5.43v1.61h-7.35v-15.4H410.13z"/>
			<path class="st24" d="M420.54,467.88v2.2h-2.2v-2.2H420.54z"/>
			<path class="st24" d="M435.33,469.12c-0.67,0.64-1.57,0.96-2.7,0.96h-0.44c-1.13,0-2.03-0.32-2.7-0.96c-0.67-0.64-1-1.57-1-2.78
				v-7.92c0-1.23,0.33-2.16,0.99-2.79c0.66-0.63,1.56-0.95,2.71-0.95h0.44c1.14,0,2.05,0.32,2.71,0.95
				c0.66,0.63,0.99,1.56,0.99,2.79v7.92C436.33,467.56,436,468.49,435.33,469.12z M433.95,456.83c-0.35-0.33-0.78-0.49-1.31-0.49
				h-0.44c-0.53,0-0.96,0.16-1.31,0.49s-0.52,0.72-0.52,1.18v5.96l4.09-5.96C434.46,457.55,434.29,457.16,433.95,456.83z
				 M430.89,467.94c0.34,0.33,0.78,0.49,1.31,0.49h0.44c0.53,0,0.96-0.17,1.31-0.49c0.34-0.33,0.52-0.72,0.52-1.18v-5.94l-4.09,5.94
				C430.37,467.21,430.54,467.61,430.89,467.94z"/>
			<path class="st24" d="M445.29,463.13c0.47-0.67,0.79-1.15,0.96-1.44c0.17-0.29,0.28-0.58,0.34-0.87
				c0.06-0.29,0.09-0.72,0.09-1.28V458c0-0.46-0.17-0.84-0.51-1.17c-0.34-0.32-0.78-0.48-1.32-0.48h-2.64v-1.67h2.42
				c1.28,0,2.25,0.31,2.94,0.94c0.68,0.62,1.02,1.56,1.02,2.8v0.92c0,0.73-0.05,1.33-0.15,1.78c-0.1,0.46-0.25,0.86-0.44,1.21
				s-0.51,0.84-0.95,1.47l-3.26,4.6h5.24v1.67h-7.26v-1.94L445.29,463.13z"/>
		</g>
		<g class="st89">
			<path class="st24" d="M942.58,214.25c-0.63,0.56-1.56,0.85-2.79,0.85h-2.29v5.98h-1.91v-15.4h4.16c1.25,0,2.19,0.28,2.83,0.82
				c0.64,0.55,0.96,1.42,0.96,2.61v2.51C943.52,212.81,943.21,213.69,942.58,214.25z M941.22,207.71c-0.26-0.25-0.66-0.37-1.22-0.37
				h-2.51v6.12H940c0.56,0,0.96-0.13,1.22-0.38s0.38-0.66,0.38-1.22v-2.93C941.61,208.36,941.48,207.96,941.22,207.71z"/>
			<path class="st24" d="M950.25,214v7.08h-1.91v-15.4h1.91v6.69h4.53v-6.69h1.91v15.4h-1.91V214H950.25z"/>
			<path class="st24" d="M963.37,217.19l-0.86,3.89h-1.96l3.72-15.4h2.53l3.65,15.4h-1.96l-0.84-3.89H963.37z M967.3,215.54
				l-1.8-8.4l-1.78,8.4H967.3z"/>
			<path class="st24" d="M981.17,220.15c-0.68,0.62-1.66,0.94-2.94,0.94h-3.12v-1.67h3.34c0.54,0,0.98-0.16,1.32-0.48
				c0.34-0.32,0.51-0.71,0.51-1.17v-2.29c0-0.44-0.11-0.79-0.34-1.07s-0.57-0.41-1.02-0.41h-0.66c-1.09,0-1.94-0.32-2.57-0.96
				c-0.63-0.64-0.95-1.57-0.95-2.78v-0.84c0-1.25,0.34-2.18,1.02-2.8c0.68-0.62,1.66-0.94,2.94-0.94h3.15v1.67h-3.37
				c-0.54,0-0.98,0.16-1.32,0.48c-0.34,0.32-0.51,0.71-0.51,1.17v1.67c0,0.46,0.15,0.83,0.44,1.13c0.29,0.3,0.67,0.45,1.14,0.45
				h0.66c1.04,0,1.85,0.3,2.43,0.9s0.87,1.51,0.87,2.73v1.45C982.2,218.59,981.86,219.52,981.17,220.15z"/>
			<path class="st24" d="M995.13,205.68v1.61h-5.43v5.04h4.88v1.61h-4.88v5.54h5.43v1.61h-7.35v-15.4H995.13z"/>
			<path class="st24" d="M1005.54,218.88v2.2h-2.2v-2.2H1005.54z"/>
			<path class="st24" d="M1020.33,220.12c-0.67,0.64-1.57,0.96-2.7,0.96h-0.44c-1.13,0-2.03-0.32-2.7-0.96c-0.67-0.64-1-1.57-1-2.78
				v-7.92c0-1.23,0.33-2.16,0.99-2.79c0.66-0.63,1.56-0.95,2.71-0.95h0.44c1.14,0,2.05,0.32,2.71,0.95
				c0.66,0.63,0.99,1.56,0.99,2.79v7.92C1021.33,218.56,1021,219.49,1020.33,220.12z M1018.95,207.83
				c-0.35-0.33-0.78-0.49-1.31-0.49h-0.44c-0.53,0-0.96,0.16-1.31,0.49s-0.52,0.72-0.52,1.18v5.96l4.09-5.96
				C1019.46,208.55,1019.29,208.16,1018.95,207.83z M1015.89,218.94c0.34,0.33,0.78,0.49,1.31,0.49h0.44c0.53,0,0.96-0.17,1.31-0.49
				c0.34-0.33,0.52-0.72,0.52-1.18v-5.94l-4.09,5.94C1015.37,218.21,1015.54,218.61,1015.89,218.94z"/>
			<path class="st24" d="M1032.82,220.26c-0.59,0.55-1.54,0.83-2.86,0.83h-2.88v-1.65h3.08c0.56,0,0.97-0.13,1.23-0.38
				c0.26-0.26,0.4-0.66,0.4-1.22v-2.79c0-0.48-0.15-0.87-0.44-1.15c-0.29-0.29-0.68-0.43-1.17-0.43h-2.88v-7.77h6.07v1.65h-4.2v4.46
				h0.9c1.13,0,2.02,0.28,2.66,0.84c0.64,0.56,0.97,1.42,0.97,2.6v2.38C1033.7,218.82,1033.41,219.71,1032.82,220.26z"/>
		</g>
		<g class="st89">
			<path class="st24" d="M475.58,269.25c-0.63,0.56-1.56,0.85-2.79,0.85h-2.29v5.98h-1.91v-15.4h4.16c1.25,0,2.19,0.28,2.83,0.82
				c0.64,0.55,0.96,1.42,0.96,2.61v2.51C476.52,267.81,476.21,268.69,475.58,269.25z M474.22,262.71c-0.26-0.25-0.66-0.37-1.22-0.37
				h-2.51v6.12H473c0.56,0,0.96-0.13,1.22-0.38s0.38-0.66,0.38-1.22v-2.93C474.61,263.36,474.48,262.96,474.22,262.71z"/>
			<path class="st24" d="M483.25,269v7.08h-1.91v-15.4h1.91v6.69h4.53v-6.69h1.91v15.4h-1.91V269H483.25z"/>
			<path class="st24" d="M496.37,272.19l-0.86,3.89h-1.96l3.72-15.4h2.53l3.65,15.4h-1.96l-0.84-3.89H496.37z M500.3,270.54
				l-1.8-8.4l-1.78,8.4H500.3z"/>
			<path class="st24" d="M514.17,275.15c-0.68,0.62-1.66,0.94-2.94,0.94h-3.12v-1.67h3.34c0.54,0,0.98-0.16,1.32-0.48
				c0.34-0.32,0.51-0.71,0.51-1.17v-2.29c0-0.44-0.11-0.79-0.34-1.07s-0.57-0.41-1.02-0.41h-0.66c-1.09,0-1.94-0.32-2.57-0.96
				c-0.63-0.64-0.95-1.57-0.95-2.78v-0.84c0-1.25,0.34-2.18,1.02-2.8c0.68-0.62,1.66-0.94,2.94-0.94h3.15v1.67h-3.37
				c-0.54,0-0.98,0.16-1.32,0.48c-0.34,0.32-0.51,0.71-0.51,1.17v1.67c0,0.46,0.15,0.83,0.44,1.13c0.29,0.3,0.67,0.45,1.14,0.45
				h0.66c1.04,0,1.85,0.3,2.43,0.9s0.87,1.51,0.87,2.73v1.45C515.2,273.59,514.86,274.52,514.17,275.15z"/>
			<path class="st24" d="M528.13,260.68v1.61h-5.43v5.04h4.88v1.61h-4.88v5.54h5.43v1.61h-7.35v-15.4H528.13z"/>
			<path class="st24" d="M538.54,273.88v2.2h-2.2v-2.2H538.54z"/>
			<path class="st24" d="M553.33,275.12c-0.67,0.64-1.57,0.96-2.7,0.96h-0.44c-1.13,0-2.03-0.32-2.7-0.96c-0.67-0.64-1-1.57-1-2.78
				v-7.92c0-1.23,0.33-2.16,0.99-2.79c0.66-0.63,1.56-0.95,2.71-0.95h0.44c1.14,0,2.05,0.32,2.71,0.95
				c0.66,0.63,0.99,1.56,0.99,2.79v7.92C554.33,273.56,554,274.49,553.33,275.12z M551.95,262.83c-0.35-0.33-0.78-0.49-1.31-0.49
				h-0.44c-0.53,0-0.96,0.16-1.31,0.49s-0.52,0.72-0.52,1.18v5.96l4.09-5.96C552.46,263.55,552.29,263.16,551.95,262.83z
				 M548.89,273.94c0.34,0.33,0.78,0.49,1.31,0.49h0.44c0.53,0,0.96-0.17,1.31-0.49c0.34-0.33,0.52-0.72,0.52-1.18v-5.94l-4.09,5.94
				C548.37,273.21,548.54,273.61,548.89,273.94z"/>
			<path class="st24" d="M565.8,275.26c-0.59,0.55-1.54,0.83-2.86,0.83h-2.82v-1.65h3.01c0.56,0,0.97-0.13,1.23-0.38
				c0.26-0.26,0.4-0.66,0.4-1.22v-2.27c0-0.48-0.15-0.87-0.44-1.15c-0.29-0.29-0.68-0.43-1.17-0.43h-2.35v-1.65h2.13
				c0.46,0,0.84-0.15,1.14-0.44c0.31-0.29,0.46-0.68,0.46-1.17v-1.8c0-0.56-0.13-0.96-0.38-1.21c-0.26-0.25-0.66-0.37-1.22-0.37
				h-2.82v-1.65h2.55c1.25,0,2.19,0.28,2.83,0.82c0.64,0.55,0.96,1.42,0.96,2.61v1.39c0,1.13-0.4,1.98-1.21,2.55
				c0.95,0.53,1.43,1.43,1.43,2.71v1.85C566.68,273.82,566.38,274.71,565.8,275.26z"/>
		</g>
		<g class="st89">
			<path class="st24" d="M692.58,162.25c-0.63,0.56-1.56,0.85-2.79,0.85h-2.29v5.98h-1.91v-15.4h4.16c1.25,0,2.19,0.28,2.83,0.82
				c0.64,0.55,0.96,1.42,0.96,2.61v2.51C693.52,160.81,693.21,161.69,692.58,162.25z M691.22,155.71c-0.26-0.25-0.66-0.37-1.22-0.37
				h-2.51v6.12H690c0.56,0,0.96-0.13,1.22-0.38s0.38-0.66,0.38-1.22v-2.93C691.61,156.36,691.48,155.96,691.22,155.71z"/>
			<path class="st24" d="M700.25,162v7.08h-1.91v-15.4h1.91v6.69h4.53v-6.69h1.91v15.4h-1.91V162H700.25z"/>
			<path class="st24" d="M713.37,165.19l-0.86,3.89h-1.96l3.72-15.4h2.53l3.65,15.4h-1.96l-0.84-3.89H713.37z M717.3,163.54
				l-1.8-8.4l-1.78,8.4H717.3z"/>
			<path class="st24" d="M731.17,168.15c-0.68,0.62-1.66,0.94-2.94,0.94h-3.12v-1.67h3.34c0.54,0,0.98-0.16,1.32-0.48
				c0.34-0.32,0.51-0.71,0.51-1.17v-2.29c0-0.44-0.11-0.79-0.34-1.07s-0.57-0.41-1.02-0.41h-0.66c-1.09,0-1.94-0.32-2.57-0.96
				c-0.63-0.64-0.95-1.57-0.95-2.78v-0.84c0-1.25,0.34-2.18,1.02-2.8c0.68-0.62,1.66-0.94,2.94-0.94h3.15v1.67h-3.37
				c-0.54,0-0.98,0.16-1.32,0.48c-0.34,0.32-0.51,0.71-0.51,1.17v1.67c0,0.46,0.15,0.83,0.44,1.13c0.29,0.3,0.67,0.45,1.14,0.45
				h0.66c1.04,0,1.85,0.3,2.43,0.9s0.87,1.51,0.87,2.73v1.45C732.2,166.59,731.86,167.52,731.17,168.15z"/>
			<path class="st24" d="M745.13,153.68v1.61h-5.43v5.04h4.88v1.61h-4.88v5.54h5.43v1.61h-7.35v-15.4H745.13z"/>
			<path class="st24" d="M755.54,166.88v2.2h-2.2v-2.2H755.54z"/>
			<path class="st24" d="M770.33,168.12c-0.67,0.64-1.57,0.96-2.7,0.96h-0.44c-1.13,0-2.03-0.32-2.7-0.96c-0.67-0.64-1-1.57-1-2.78
				v-7.92c0-1.23,0.33-2.16,0.99-2.79c0.66-0.63,1.56-0.95,2.71-0.95h0.44c1.14,0,2.05,0.32,2.71,0.95
				c0.66,0.63,0.99,1.56,0.99,2.79v7.92C771.33,166.56,771,167.49,770.33,168.12z M768.95,155.83c-0.35-0.33-0.78-0.49-1.31-0.49
				h-0.44c-0.53,0-0.96,0.16-1.31,0.49s-0.52,0.72-0.52,1.18v5.96l4.09-5.96C769.46,156.55,769.29,156.16,768.95,155.83z
				 M765.89,166.94c0.34,0.33,0.78,0.49,1.31,0.49h0.44c0.53,0,0.96-0.17,1.31-0.49c0.34-0.33,0.52-0.72,0.52-1.18v-5.94l-4.09,5.94
				C765.37,166.21,765.54,166.61,765.89,166.94z"/>
			<path class="st24" d="M780.91,169.08v-3.43h-4.53v-1.89l2.35-10.08h1.78l-2.24,10.36h2.64v-5.02h1.87v5.02h1.65v1.61h-1.65v3.43
				H780.91z"/>
		</g>
		<g class="st89">
			<path class="st24" d="M23.58,325.25c-0.63,0.56-1.56,0.85-2.79,0.85h-2.29v5.98h-1.91v-15.4h4.16c1.25,0,2.19,0.28,2.83,0.82
				c0.64,0.55,0.96,1.42,0.96,2.61v2.51C24.52,323.81,24.21,324.69,23.58,325.25z M22.22,318.71c-0.26-0.25-0.66-0.37-1.22-0.37
				h-2.51v6.12H21c0.56,0,0.96-0.13,1.22-0.38c0.26-0.26,0.38-0.66,0.38-1.22v-2.93C22.61,319.36,22.48,318.96,22.22,318.71z"/>
			<path class="st24" d="M31.25,325v7.08h-1.91v-15.4h1.91v6.69h4.53v-6.69h1.91v15.4h-1.91V325H31.25z"/>
			<path class="st24" d="M44.37,328.19l-0.86,3.89h-1.96l3.72-15.4h2.53l3.65,15.4h-1.96l-0.84-3.89H44.37z M48.3,326.54l-1.8-8.4
				l-1.78,8.4H48.3z"/>
			<path class="st24" d="M62.17,331.15c-0.68,0.62-1.66,0.94-2.94,0.94h-3.12v-1.67h3.34c0.54,0,0.98-0.16,1.32-0.48
				s0.51-0.71,0.51-1.17v-2.29c0-0.44-0.11-0.79-0.34-1.07S60.37,325,59.92,325h-0.66c-1.09,0-1.94-0.32-2.57-0.96
				c-0.63-0.64-0.95-1.57-0.95-2.78v-0.84c0-1.25,0.34-2.18,1.02-2.8c0.68-0.62,1.66-0.94,2.94-0.94h3.15v1.67h-3.37
				c-0.54,0-0.98,0.16-1.32,0.48c-0.34,0.32-0.51,0.71-0.51,1.17v1.67c0,0.46,0.15,0.83,0.44,1.13c0.29,0.3,0.67,0.45,1.14,0.45
				h0.66c1.04,0,1.85,0.3,2.43,0.9c0.58,0.6,0.87,1.51,0.87,2.73v1.45C63.2,329.59,62.86,330.52,62.17,331.15z"/>
			<path class="st24" d="M76.13,316.68v1.61H70.7v5.04h4.88v1.61H70.7v5.54h5.43v1.61h-7.35v-15.4H76.13z"/>
			<path class="st24" d="M86.54,329.88v2.2h-2.2v-2.2H86.54z"/>
			<path class="st24" d="M101.33,331.12c-0.67,0.64-1.57,0.96-2.69,0.96H98.2c-1.13,0-2.03-0.32-2.7-0.96c-0.67-0.64-1-1.57-1-2.78
				v-7.92c0-1.23,0.33-2.16,0.99-2.79c0.66-0.63,1.56-0.95,2.71-0.95h0.44c1.14,0,2.05,0.32,2.71,0.95
				c0.66,0.63,0.99,1.56,0.99,2.79v7.92C102.33,329.56,102,330.49,101.33,331.12z M99.95,318.83c-0.35-0.33-0.78-0.49-1.31-0.49
				H98.2c-0.53,0-0.96,0.16-1.31,0.49c-0.34,0.33-0.52,0.72-0.52,1.18v5.96l4.09-5.96C100.46,319.55,100.29,319.16,99.95,318.83z
				 M96.89,329.94c0.34,0.33,0.78,0.49,1.31,0.49h0.44c0.53,0,0.96-0.17,1.31-0.49c0.34-0.33,0.52-0.72,0.52-1.18v-5.94l-4.09,5.94
				C96.37,329.21,96.55,329.61,96.89,329.94z"/>
			<path class="st24" d="M110.81,330.43v-12.01l-3.1,1.14v-1.78l2.88-1.1h2.09v13.75h2.4v1.65h-7.15v-1.65H110.81z"/>
		</g>
	</g>
	<g>
		<g id="Group_481">
			<path id="Path_505" class="st90" d="M273.11,180.05L135.66,337.82l254.38,108.91l50.78-181.02L704.7,129.95L1021,193.87"/>
			<path id="Path_506" class="st90" d="M1141.99,31.82l-120.95,161.89l123.21,99.27"/>
		</g>
	</g>
	<g id="Group_483" transform="translate(7 -2)">
		
			<radialGradient id="Ellipse_18_00000044138143894399350300000011576582451033063567_" cx="87.07" cy="-6540.707" r="0.5" gradientTransform="matrix(10 0 0 -10 -605.1 -65223.9883)" gradientUnits="userSpaceOnUse">
			<stop  offset="0" style="stop-color:#15F2C0"/>
			<stop  offset="0.594" style="stop-color:#15F2C0;stop-opacity:0.2"/>
			<stop  offset="1" style="stop-color:#15F2C0;stop-opacity:0"/>
		</radialGradient>
		
			<circle id="Ellipse_18" style="fill:url(#Ellipse_18_00000044138143894399350300000011576582451033063567_);" cx="265.6" cy="183.08" r="5"/>
		
			<radialGradient id="Ellipse_17_00000043449944045591202100000000582884357712498106_" cx="90.8917" cy="-6547.3394" r="0.5" gradientTransform="matrix(12 0 0 -12 43.9 -78533.9922)" gradientUnits="userSpaceOnUse">
			<stop  offset="0" style="stop-color:#15F2C0"/>
			<stop  offset="0.594" style="stop-color:#15F2C0;stop-opacity:0.2"/>
			<stop  offset="1" style="stop-color:#15F2C0;stop-opacity:0"/>
		</radialGradient>
		
			<circle id="Ellipse_17" style="fill:url(#Ellipse_17_00000043449944045591202100000000582884357712498106_);" cx="1134.6" cy="34.08" r="6"/>
		
			<radialGradient id="Ellipse_33_00000176761944539778691610000001652343362195799741_" cx="90.8917" cy="-6547.5894" r="0.5" gradientTransform="matrix(12 0 0 -12 45.9 -78275.9922)" gradientUnits="userSpaceOnUse">
			<stop  offset="0" style="stop-color:#15F2C0"/>
			<stop  offset="0.594" style="stop-color:#15F2C0;stop-opacity:0.2"/>
			<stop  offset="1" style="stop-color:#15F2C0;stop-opacity:0"/>
		</radialGradient>
		
			<circle id="Ellipse_33" style="fill:url(#Ellipse_33_00000176761944539778691610000001652343362195799741_);" cx="1136.6" cy="295.08" r="6"/>
		
			<radialGradient id="Ellipse_27_00000085943105849723549820000004204432143829520314_" cx="95.5437" cy="-6556.1919" r="0.5" gradientTransform="matrix(16 0 0 -16 -1329.1 -104640.9922)" gradientUnits="userSpaceOnUse">
			<stop  offset="0" style="stop-color:#15F2C0"/>
			<stop  offset="0.594" style="stop-color:#15F2C0;stop-opacity:0.2"/>
			<stop  offset="1" style="stop-color:#15F2C0;stop-opacity:0"/>
		</radialGradient>
		
			<circle id="Ellipse_27" style="fill:url(#Ellipse_27_00000085943105849723549820000004204432143829520314_);" cx="199.6" cy="258.08" r="8"/>
		
			<radialGradient id="Ellipse_29_00000060735522593937856570000017073550163563385770_" cx="95.6687" cy="-6556.1294" r="0.5" gradientTransform="matrix(16 0 0 -16 -1278.1 -104504.9922)" gradientUnits="userSpaceOnUse">
			<stop  offset="0" style="stop-color:#15F2C0"/>
			<stop  offset="0.594" style="stop-color:#15F2C0;stop-opacity:0.2"/>
			<stop  offset="1" style="stop-color:#15F2C0;stop-opacity:0"/>
		</radialGradient>
		
			<circle id="Ellipse_29" style="fill:url(#Ellipse_29_00000060735522593937856570000017073550163563385770_);" cx="252.6" cy="393.08" r="8"/>
		
			<radialGradient id="Ellipse_30_00000155841547734256739280000009146707507023651493_" cx="95.7312" cy="-6555.9419" r="0.5" gradientTransform="matrix(16 0 0 -16 -1122.1 -104539.9922)" gradientUnits="userSpaceOnUse">
			<stop  offset="0" style="stop-color:#15F2C0"/>
			<stop  offset="0.594" style="stop-color:#15F2C0;stop-opacity:0.2"/>
			<stop  offset="1" style="stop-color:#15F2C0;stop-opacity:0"/>
		</radialGradient>
		
			<circle id="Ellipse_30" style="fill:url(#Ellipse_30_00000155841547734256739280000009146707507023651493_);" cx="409.6" cy="355.08" r="8"/>
		
			<radialGradient id="Ellipse_31_00000018197250325421281190000012786082540360809360_" cx="95.7312" cy="-6556.0044" r="0.5" gradientTransform="matrix(16 0 0 -16 -966.1 -104695.9922)" gradientUnits="userSpaceOnUse">
			<stop  offset="0" style="stop-color:#15F2C0"/>
			<stop  offset="0.594" style="stop-color:#15F2C0;stop-opacity:0.2"/>
			<stop  offset="1" style="stop-color:#15F2C0;stop-opacity:0"/>
		</radialGradient>
		
			<circle id="Ellipse_31" style="fill:url(#Ellipse_31_00000018197250325421281190000012786082540360809360_);" cx="565.6" cy="200.08" r="8"/>
		
			<radialGradient id="Ellipse_32_00000018920797448299753190000016004231624391150994_" cx="95.9187" cy="-6556.0044" r="0.5" gradientTransform="matrix(16 0 0 -16 -677.1 -104731.9922)" gradientUnits="userSpaceOnUse">
			<stop  offset="0" style="stop-color:#15F2C0"/>
			<stop  offset="0.594" style="stop-color:#15F2C0;stop-opacity:0.2"/>
			<stop  offset="1" style="stop-color:#15F2C0;stop-opacity:0"/>
		</radialGradient>
		
			<circle id="Ellipse_32" style="fill:url(#Ellipse_32_00000018920797448299753190000016004231624391150994_);" cx="857.6" cy="164.08" r="8"/>
	</g>
</g>
</svg>
