<svg xmlns="http://www.w3.org/2000/svg" width="19.522" height="15.864" viewBox="0 0 19.522 15.864">
  <g id="Group_501" data-name="Group 501" transform="translate(-1824 -510)">
    <g id="Group_52" data-name="Group 52" transform="translate(1824 510)">
      <path id="Path_78" data-name="Path 78" d="M124.727,5.722c.012.172.012.344.012.518a11.319,11.319,0,0,1-11.4,11.4v0a11.338,11.338,0,0,1-6.14-1.8,8.036,8.036,0,0,0,5.928-1.66,4.011,4.011,0,0,1-3.742-2.782,3.989,3.989,0,0,0,1.808-.069A4.006,4.006,0,0,1,107.984,7.4V7.35a3.981,3.981,0,0,0,1.818.5,4.01,4.01,0,0,1-1.24-5.348,11.37,11.37,0,0,0,8.255,4.185,4.009,4.009,0,0,1,6.826-3.653,8.045,8.045,0,0,0,2.544-.972,4.022,4.022,0,0,1-1.761,2.215,7.957,7.957,0,0,0,2.3-.63,8.143,8.143,0,0,1-2,2.075" transform="translate(-107.203 -1.772)" fill="#15f2c0"/>
    </g>
  </g>
</svg>
